<svg width="420" height="160" viewBox="0 0 420 160" fill="none" xmlns="http://www.w3.org/2000/svg">
<mask id="mask0" mask-type="alpha" maskUnits="userSpaceOnUse" x="0" y="0" width="420" height="160">
<rect width="420" height="160" rx="2" fill="#3D405B"/>
</mask>
<g mask="url(#mask0)">
<rect width="420" height="160" rx="2" fill="#3D405B"/>
<path d="M130.504 -1.98962L172.86 22.4813V71.4231L130.504 95.894L88.1474 71.4231V22.4813L130.504 -1.98962Z" fill="#8478B3"/>
<path d="M364.687 -5.30768L403.813 17.2968V62.5057L364.687 85.1102L325.561 62.5057V17.2968L364.687 -5.30768Z" fill="#77CAD0"/>
<path d="M259.408 65.2017L308.585 93.6128V150.435L259.408 178.846L210.232 150.435V93.6128L259.408 65.2017Z" fill="#77CAD0"/>
<path d="M173.61 75.156L206.634 94.235V132.393L173.61 151.472L140.586 132.393V94.235L173.61 75.156Z" fill="#CBD9C9"/>
<path d="M50.923 2.98755L84.6646 22.4813V61.4688L50.923 80.9626L17.1813 61.4688V22.4813L50.923 2.98755Z" fill="#CBD9C9"/>
<path d="M291.738 9.62366L322.249 27.251V62.5057L291.738 80.133L261.227 62.5057V27.251L291.738 9.62366Z" fill="#8478B3"/>
<path d="M86.5686 -26.8752L106.67 -15.2619V7.96468L86.5686 19.578L66.4672 7.96468V-15.2619L86.5686 -26.8752Z" fill="#77CAD0"/>
<path d="M238.684 29.5322L257.709 40.5234V62.5057L238.684 73.4969L219.66 62.5057V40.5234L238.684 29.5322Z" fill="#EB7086"/>
<path d="M405.307 65.2017L424.331 76.1928V98.1752L405.307 109.166L386.282 98.1752V76.1928L405.307 65.2017Z" fill="#8478B3"/>
<path d="M-5.03235 28.7027L13.9922 39.6939V61.6762L-5.03235 72.6674L-24.0569 61.6762V39.6939L-5.03235 28.7027Z" fill="#EB7086"/>
<path d="M346.45 -36L363.321 -26.2531V-6.75935L346.45 2.98753L329.579 -6.75935V-26.2531L346.45 -36Z" fill="#CBD9C9"/>
<path d="M310.39 153.131L329.056 163.915V185.482L310.39 196.266L291.724 185.482V163.915L310.39 153.131Z" fill="#F5BA93"/>
<path d="M15.6919 64.3722L27.5373 71.0084V84.2807L15.6919 90.9169L3.84639 84.2807V71.0084L15.6919 64.3722Z" fill="#F5BA93"/>
<path d="M321.167 134.881L330.499 140.066V150.435L321.167 155.62L311.834 150.435V140.066L321.167 134.881Z" fill="#CBD9C9"/>
<path d="M416.498 46.9521L425.831 52.1367V62.5057L416.498 67.6902L407.165 62.5057V52.1367L416.498 46.9521Z" fill="#CBD9C9"/>
</g>
</svg>
