<svg width="420" height="160" viewBox="0 0 420 160" fill="none" xmlns="http://www.w3.org/2000/svg">
<rect width="420" height="160" rx="2" fill="#0E0E0B"/>
<path fill-rule="evenodd" clip-rule="evenodd" d="M319.463 82.5909L228.928 85.6818L138.392 82.5909L137.757 79.5L138.392 76.4091L228.928 73.3182L319.463 76.4091L320.098 79.5L319.463 82.5909Z" fill="#FFFDF8"/>
<path fill-rule="evenodd" clip-rule="evenodd" d="M82.0846 81.0455C79.8242 74.0909 123.526 33.2909 134.074 32.3636C143.87 32.3636 161.35 67.7545 157.432 81.0455C161.35 94.3364 143.869 129.727 134.074 129.727C123.526 128.8 79.8242 88 82.0846 81.0455ZM123.526 71.3864C127.895 71.3864 131.437 67.7538 131.437 63.2727C131.437 58.7917 127.895 55.1591 123.526 55.1591C119.156 55.1591 115.614 58.7917 115.614 63.2727C115.614 67.7538 119.156 71.3864 123.526 71.3864Z" fill="#FFFDF8"/>
<path d="M134.074 32.3636V31.8636H134.052L134.031 31.8656L134.074 32.3636ZM82.0846 81.0455L82.5601 81.2L82.6103 81.0455L82.5601 80.8909L82.0846 81.0455ZM157.432 81.0455L156.953 80.9041L156.911 81.0455L156.953 81.1868L157.432 81.0455ZM134.074 129.727L134.031 130.225L134.052 130.227H134.074V129.727ZM134.031 31.8656C132.6 31.9913 130.685 32.7767 128.477 33.999C126.252 35.2309 123.669 36.9411 120.887 38.9801C115.322 43.0589 108.926 48.4768 102.935 54.0791C96.9443 59.6807 91.3469 65.4782 87.3841 70.3186C85.4043 72.737 83.8206 74.9307 82.8007 76.7505C82.2911 77.6599 81.9131 78.4919 81.7 79.2229C81.4898 79.9443 81.4226 80.6264 81.6091 81.2L82.5601 80.8909C82.464 80.5952 82.4734 80.1435 82.6601 79.5027C82.844 78.8717 83.1834 78.1131 83.6731 77.2394C84.6517 75.4933 86.1938 73.3512 88.1579 70.9521C92.0831 66.1576 97.6465 60.3932 103.618 54.8095C109.588 49.2266 115.953 43.836 121.479 39.7867C124.242 37.7616 126.786 36.0778 128.961 34.8739C131.154 33.6602 132.912 32.9678 134.118 32.8617L134.031 31.8656ZM157.912 81.1868C158.929 77.7351 158.545 72.9254 157.299 67.7155C156.048 62.487 153.911 56.7827 151.345 51.502C148.781 46.2229 145.779 41.3459 142.791 37.7799C141.297 35.9975 139.794 34.5288 138.339 33.5018C136.891 32.4792 135.445 31.8636 134.074 31.8636V32.8636C135.153 32.8636 136.396 33.3541 137.763 34.3188C139.123 35.2792 140.563 36.6792 142.024 38.4223C144.945 41.9075 147.905 46.7089 150.446 51.9389C152.986 57.1673 155.096 62.8028 156.327 67.9481C157.562 73.1121 157.894 77.7103 156.953 80.9041L157.912 81.1868ZM134.074 130.227C135.445 130.227 136.891 129.612 138.339 128.589C139.794 127.562 141.296 126.093 142.79 124.311C145.779 120.745 148.781 115.868 151.345 110.589C153.911 105.308 156.048 99.6039 157.299 94.3754C158.545 89.1655 158.929 84.3558 157.912 80.9041L156.953 81.1868C157.894 84.3806 157.562 88.9788 156.327 94.1428C155.096 99.2881 152.986 104.924 150.446 110.152C147.905 115.382 144.945 120.183 142.024 123.669C140.563 125.412 139.123 126.812 137.763 127.772C136.396 128.737 135.153 129.227 134.074 129.227V130.227ZM81.6091 80.8909C81.4226 81.4646 81.4898 82.1466 81.7 82.868C81.9131 83.5991 82.2911 84.431 82.8007 85.3404C83.8206 87.1602 85.4043 89.3539 87.3841 91.7723C91.3469 96.6127 96.9443 102.41 102.935 108.012C108.926 113.614 115.322 119.032 120.887 123.111C123.669 125.15 126.252 126.86 128.477 128.092C130.685 129.314 132.6 130.1 134.031 130.225L134.118 129.229C132.912 129.123 131.154 128.431 128.961 127.217C126.786 126.013 124.242 124.329 121.478 122.304C115.953 118.255 109.588 112.864 103.618 107.281C97.6465 101.698 92.0831 95.9333 88.1579 91.1388C86.1938 88.7397 84.6517 86.5976 83.6731 84.8515C83.1834 83.9778 82.844 83.2192 82.6601 82.5882C82.4734 81.9474 82.464 81.4957 82.5601 81.2L81.6091 80.8909ZM130.937 63.2727C130.937 67.4896 127.607 70.8864 123.526 70.8864V71.8864C128.183 71.8864 131.937 68.0179 131.937 63.2727H130.937ZM123.526 55.6591C127.607 55.6591 130.937 59.0559 130.937 63.2727H131.937C131.937 58.5275 128.183 54.6591 123.526 54.6591V55.6591ZM116.114 63.2727C116.114 59.0559 119.444 55.6591 123.526 55.6591V54.6591C118.868 54.6591 115.114 58.5275 115.114 63.2727H116.114ZM123.526 70.8864C119.444 70.8864 116.114 67.4896 116.114 63.2727H115.114C115.114 68.0179 118.868 71.8864 123.526 71.8864V70.8864Z" fill="#FFFDF8"/>
<path d="M329.893 54.0834C333.605 41.4836 340.442 30.9016 336.674 28.5834C332.907 26.2653 294.856 73.0153 294.856 73.0153C294.856 73.0153 292.219 75.25 292.219 79.1971C292.219 83.1442 294.856 85.3789 294.856 85.3789C294.856 85.3789 332.907 132.129 336.674 129.811C340.442 127.493 333.605 116.911 329.893 104.311C327.388 95.8085 326.502 86.9183 326.502 79.1971C326.502 71.4759 327.388 62.5856 329.893 54.0834Z" fill="#FFFDF8"/>
<path fill-rule="evenodd" clip-rule="evenodd" d="M209.539 29.1094L209.54 29.1101ZM209.544 29.1138C209.551 29.1199 209.564 29.1326 209.584 29.1519C209.641 29.2074 209.751 29.3174 209.907 29.485C210.219 29.8202 210.715 30.3863 211.336 31.2076C212.578 32.8482 214.328 35.5173 216.111 39.4148C219.668 47.1896 223.424 59.9962 223.424 79.5C223.424 99.0038 219.668 111.81 216.111 119.585C214.328 123.483 212.578 126.152 211.336 127.792C210.715 128.614 210.219 129.18 209.907 129.515C209.751 129.683 209.641 129.793 209.584 129.848C209.564 129.867 209.551 129.88 209.544 129.886C207.476 131.76 207.246 135.017 209.037 137.184C210.838 139.364 214.003 139.617 216.104 137.748L212.842 133.801C216.104 137.748 216.107 137.746 216.11 137.743L216.116 137.738L216.129 137.727L216.158 137.7C216.18 137.68 216.206 137.656 216.235 137.629C216.293 137.575 216.366 137.506 216.451 137.423C216.623 137.255 216.848 137.028 217.118 136.737C217.659 136.156 218.381 135.324 219.221 134.213C220.903 131.991 223.052 128.666 225.167 124.043C229.407 114.777 233.448 100.433 233.448 79.5C233.448 58.567 229.407 44.2232 225.167 34.9567C223.052 30.3336 220.903 27.0094 219.221 24.7868C218.381 23.6765 217.659 22.8435 217.118 22.2626C216.848 21.9722 216.623 21.7448 216.451 21.5774C216.366 21.4937 216.293 21.425 216.235 21.3708C216.206 21.3438 216.18 21.3203 216.158 21.3005L216.129 21.2734L216.116 21.2619L216.11 21.2566C216.107 21.2541 216.104 21.2517 212.842 25.1991L216.104 21.2517C214.003 19.3831 210.838 19.6356 209.037 21.8156C207.246 23.9831 207.476 27.2397 209.544 29.1138Z" fill="#FFFDF8"/>
<path fill-rule="evenodd" clip-rule="evenodd" d="M185.328 33.0951L185.329 33.0957ZM185.332 33.0992C185.338 33.1049 185.351 33.1167 185.37 33.1346C185.423 33.1861 185.527 33.2882 185.674 33.4439C185.967 33.7552 186.434 34.2808 187.019 35.0434C188.188 36.5668 189.835 39.0453 191.513 42.6644C194.861 49.8838 198.396 61.7757 198.396 79.8864C198.396 97.9971 194.861 109.889 191.513 117.108C189.835 120.727 188.188 123.206 187.019 124.729C186.434 125.492 185.967 126.018 185.674 126.329C185.527 126.485 185.423 126.587 185.37 126.638C185.351 126.656 185.338 126.668 185.332 126.674C183.386 128.414 183.169 131.438 184.855 133.45C186.55 135.475 189.528 135.709 191.507 133.974L188.437 130.309C191.507 133.974 191.509 133.972 191.512 133.969L191.517 133.965L191.529 133.954L191.558 133.929C191.578 133.91 191.602 133.889 191.63 133.863C191.684 133.813 191.752 133.749 191.833 133.672C191.995 133.516 192.206 133.305 192.461 133.035C192.97 132.496 193.649 131.722 194.44 130.691C196.023 128.628 198.046 125.541 200.037 121.248C204.027 112.643 207.83 99.3242 207.83 79.8864C207.83 60.4486 204.027 47.1293 200.037 38.5247C198.046 34.2318 196.023 31.1451 194.44 29.0813C193.649 28.0502 192.97 27.2768 192.461 26.7373C192.206 26.4677 191.995 26.2566 191.833 26.1011C191.752 26.0234 191.684 25.9596 191.63 25.9093C191.602 25.8841 191.578 25.8624 191.558 25.844L191.529 25.8188L191.517 25.8081L191.512 25.8032C191.509 25.8009 191.507 25.7987 188.437 29.4641L191.507 25.7987C189.528 24.0635 186.55 24.298 184.855 26.3223C183.169 28.3349 183.386 31.359 185.332 33.0992Z" fill="#FFFDF8"/>
<path fill-rule="evenodd" clip-rule="evenodd" d="M235.057 33.0951L235.058 33.0957ZM235.061 33.0992C235.068 33.1049 235.08 33.1167 235.099 33.1346C235.152 33.1861 235.256 33.2882 235.403 33.4439C235.696 33.7552 236.163 34.2808 236.748 35.0434C237.917 36.5668 239.564 39.0453 241.242 42.6644C244.59 49.8838 248.125 61.7757 248.125 79.8864C248.125 97.9971 244.59 109.889 241.242 117.108C239.564 120.727 237.917 123.206 236.748 124.729C236.163 125.492 235.696 126.018 235.403 126.329C235.256 126.485 235.152 126.587 235.099 126.638C235.08 126.656 235.068 126.668 235.062 126.674C233.115 128.414 232.898 131.438 234.584 133.45C236.28 135.475 239.258 135.709 241.236 133.974L238.166 130.309C241.236 133.974 241.238 133.972 241.241 133.969L241.247 133.965L241.259 133.954L241.287 133.929C241.307 133.91 241.331 133.889 241.359 133.863C241.414 133.813 241.482 133.749 241.562 133.672C241.724 133.516 241.936 133.305 242.19 133.035C242.699 132.496 243.379 131.722 244.17 130.691C245.753 128.628 247.775 125.541 249.766 121.248C253.756 112.643 257.56 99.3242 257.56 79.8864C257.56 60.4486 253.756 47.1293 249.766 38.5247C247.775 34.2318 245.753 31.1451 244.17 29.0813C243.379 28.0502 242.699 27.2768 242.19 26.7373C241.936 26.4677 241.724 26.2566 241.562 26.1011C241.482 26.0234 241.414 25.9596 241.359 25.9093C241.331 25.8841 241.307 25.8624 241.287 25.844L241.259 25.8188L241.247 25.8081L241.241 25.8032C241.238 25.8009 241.236 25.7987 238.166 29.4641L241.236 25.7987C239.258 24.0635 236.28 24.298 234.584 26.3223C232.898 28.3349 233.115 31.359 235.061 33.0992Z" fill="#FFFDF8"/>
<path fill-rule="evenodd" clip-rule="evenodd" d="M259.068 35.7128L259.068 35.7134ZM259.072 35.7166C259.078 35.722 259.089 35.7332 259.107 35.7501C259.157 35.7987 259.254 35.8951 259.392 36.0421C259.667 36.3359 260.105 36.8322 260.653 37.5521C261.749 38.9903 263.293 41.3301 264.866 44.7468C268.005 51.5623 271.319 62.7889 271.319 79.8864C271.319 96.9839 268.005 108.21 264.866 115.026C263.293 118.443 261.749 120.782 260.653 122.221C260.105 122.941 259.667 123.437 259.392 123.731C259.254 123.878 259.157 123.974 259.107 124.023C259.089 124.04 259.078 124.051 259.072 124.056C257.247 125.699 257.044 128.554 258.624 130.454C260.214 132.365 263.006 132.586 264.86 130.948L261.982 127.488C264.86 130.948 264.863 130.946 264.865 130.944L264.87 130.939L264.882 130.929L264.908 130.905C264.927 130.888 264.95 130.867 264.976 130.844C265.027 130.796 265.091 130.736 265.167 130.663C265.318 130.516 265.516 130.317 265.755 130.062C266.232 129.553 266.869 128.823 267.611 127.849C269.095 125.901 270.991 122.987 272.857 118.934C276.598 110.811 280.164 98.2367 280.164 79.8864C280.164 61.536 276.598 48.9619 272.857 40.8387C270.991 36.7859 269.095 33.8718 267.611 31.9235C266.869 30.9502 266.232 30.22 265.755 29.7107C265.516 29.4561 265.318 29.2569 265.167 29.1101C265.091 29.0367 265.027 28.9765 264.976 28.929C264.95 28.9052 264.927 28.8847 264.908 28.8673L264.882 28.8436L264.87 28.8335L264.865 28.8289C264.863 28.8267 264.86 28.8246 261.982 32.2849L264.86 28.8246C263.006 27.1865 260.214 27.4078 258.624 29.3189C257.044 31.2189 257.247 34.0738 259.072 35.7166Z" fill="#FFFDF8"/>
<path fill-rule="evenodd" clip-rule="evenodd" d="M162.623 35.7128L162.624 35.7134ZM162.627 35.7166C162.633 35.722 162.645 35.7332 162.662 35.7501C162.712 35.7987 162.809 35.8951 162.947 36.0421C163.222 36.3359 163.66 36.8322 164.209 37.5521C165.304 38.9903 166.848 41.3301 168.422 44.7468C171.56 51.5623 174.874 62.7889 174.874 79.8864C174.874 96.9839 171.56 108.21 168.422 115.026C166.848 118.443 165.304 120.782 164.209 122.221C163.66 122.941 163.222 123.437 162.947 123.731C162.809 123.878 162.712 123.974 162.662 124.023C162.645 124.04 162.633 124.051 162.627 124.056C160.802 125.699 160.599 128.554 162.18 130.454C163.769 132.365 166.561 132.586 168.416 130.948L165.537 127.488C168.416 130.948 168.418 130.946 168.421 130.944L168.426 130.939L168.437 130.929L168.463 130.905C168.483 130.888 168.505 130.867 168.531 130.844C168.582 130.796 168.646 130.736 168.722 130.663C168.873 130.516 169.072 130.317 169.31 130.062C169.787 129.553 170.425 128.823 171.166 127.849C172.65 125.901 174.546 122.987 176.412 118.934C180.153 110.811 183.719 98.2367 183.719 79.8864C183.719 61.536 180.153 48.9619 176.412 40.8387C174.546 36.7859 172.65 33.8718 171.166 31.9235C170.425 30.9502 169.787 30.22 169.31 29.7107C169.072 29.4561 168.873 29.2569 168.722 29.1101C168.646 29.0367 168.582 28.9765 168.531 28.929C168.505 28.9052 168.483 28.8847 168.463 28.8673L168.437 28.8436L168.426 28.8335L168.421 28.8289C168.418 28.8267 168.416 28.8246 165.537 32.2849L168.416 28.8246C166.561 27.1865 163.769 27.4078 162.18 29.3189C160.599 31.2189 160.802 34.0738 162.627 35.7166Z" fill="#FFFDF8"/>
</svg>
