<svg width="80" height="40" viewBox="0 0 80 40" fill="none" xmlns="http://www.w3.org/2000/svg">
<path d="M0 40C4.59221e-07 34.7471 1.03463 29.5457 3.04482 24.6926C5.05502 19.8396 8.0014 15.4301 11.7157 11.7157C15.4301 8.00136 19.8397 5.05499 24.6927 3.0448C29.5457 1.03462 34.7472 -6.95072e-06 40.0001 0C45.2529 6.95079e-06 50.4544 1.03465 55.3074 3.04484C60.1604 5.05504 64.57 8.00143 68.2843 11.7158C71.9987 15.4301 74.945 19.8397 76.9552 24.6927C78.9654 29.5458 80 34.7472 80 40.0001L40 40L0 40Z" fill="#0E0E0B"/>
<path fill-rule="evenodd" clip-rule="evenodd" d="M40 40L16 11L19.1878 7.14801L43.1878 36.148L40 40Z" fill="#FFFDF8"/>
<path fill-rule="evenodd" clip-rule="evenodd" d="M40 40L64 11L60.8122 7.14801L36.8122 36.148L40 40Z" fill="#FFFDF8"/>
</svg>
